# xmcd CD database file
#
# Track frame offsets:
#	150
#	19605
#	32442
#	43934
#	73810
#	86025
#	101167
#	116865
#	128421
#	146483
#	156865
#	168003
#	184198
#	200927
#	219339
#	234290
#	247037
#	264365
#	288637
#	304582
#	319438
#
# Disc length: 4565 seconds
#
# Revision: 2
# Processed by: cddbd v1.4PL0 Copyright (c) Steve Scherf et al.
# Submitted via: CDex 1.40Beta5
#
DISCID=3411d315
DTITLE=Jimi Hendrix Experience - Gold
DYEAR=1900
DGENRE=Blues
TTITLE0=Voodoo Chile
TTITLE1=Purple Haze
TTITLE2=Can You See Me
TTITLE3=The Sunshine Of Your Love
TTITLE4=Fire
TTITLE5=The Wind Cries Mary
TTITLE6=Hey Joe
TTITLE7=Psycho
TTITLE8=All Along The Watchtower
TTITLE9=Crosstown Traffic
TTITLE10=Smashing of the Amps
TTITLE11=Stone Free
TTITLE12=Manic Depression
TTITLE13=Good Feeling
TTITLE14=Foxy Lady
TTITLE15=Remember
TTITLE16=Red House
TTITLE17=Bleeding Heart
TTITLE18=Highway Chile
TTITLE19=51st Anniversary
TTITLE20=Voodoo Chile (Slight Return)
EXTD=ID3G:   0
EXTT0=
EXTT1=
EXTT2=
EXTT3=
EXTT4=
EXTT5=
EXTT6=
EXTT7=
EXTT8=
EXTT9=
EXTT10=
EXTT11=
EXTT12=
EXTT13=
EXTT14=
EXTT15=
EXTT16=
EXTT17=
EXTT18=
EXTT19=
EXTT20=
PLAYORDER=
